<?xml version="1.0" encoding="UTF-8" standalone="no"?>
<!-- Created with Inkscape (http://www.inkscape.org/) -->

<svg
   width="210mm"
   height="297mm"
   viewBox="0 0 210 297"
   version="1.1"
   id="svg5"
   inkscape:version="1.1.1 (c3084ef, 2021-09-22)"
   sodipodi:docname="logo-concept-2.svg"
   xmlns:inkscape="http://www.inkscape.org/namespaces/inkscape"
   xmlns:sodipodi="http://sodipodi.sourceforge.net/DTD/sodipodi-0.dtd"
   xmlns="http://www.w3.org/2000/svg"
   xmlns:svg="http://www.w3.org/2000/svg">
  <sodipodi:namedview
     id="namedview7"
     pagecolor="#ffffff"
     bordercolor="#666666"
     borderopacity="1.0"
     inkscape:pageshadow="2"
     inkscape:pageopacity="0.0"
     inkscape:pagecheckerboard="0"
     inkscape:document-units="mm"
     showgrid="false"
     showguides="true"
     inkscape:guide-bbox="true"
     inkscape:zoom="1.8508283"
     inkscape:cx="536.24638"
     inkscape:cy="126.42988"
     inkscape:window-width="1440"
     inkscape:window-height="900"
     inkscape:window-x="0"
     inkscape:window-y="0"
     inkscape:window-maximized="0"
     inkscape:current-layer="g16776" />
  <defs
     id="defs2" />
  <g
     inkscape:label="Layer 1"
     inkscape:groupmode="layer"
     id="layer1">
    <g
       id="g16776">
      <path
         style="fill:#000000;stroke:#000000;stroke-width:0;stroke-linecap:round;stroke-linejoin:round"
         d="m 132.48735,41.571472 c -0.0554,-0.01058 -0.11593,-0.06571 -0.13911,-0.126688 -0.0254,-0.06687 -0.0367,-1.3707 -0.0296,-3.427095 0.013,-3.797104 -0.036,-3.412177 0.44122,-3.463282 l 0.2726,-0.02919 v -0.178091 c 0,-0.09795 -0.023,-0.201083 -0.0511,-0.229179 -0.0644,-0.06437 -1.19467,-0.07086 -1.31299,-0.0075 -0.0447,0.02395 -0.10084,0.07995 -0.12465,0.124439 -0.0238,0.04449 -0.23456,0.872577 -0.46831,1.840193 -0.23376,0.967616 -0.45598,1.819307 -0.49383,1.892647 -0.0904,0.175273 -0.2191,0.228502 -0.55234,0.228502 -0.18468,0 -0.27471,0.01667 -0.27471,0.05088 0,0.02799 -0.0491,0.102153 -0.10916,0.164817 -0.10905,0.113832 -0.10936,0.113877 -0.32962,0.04931 -0.19832,-0.05813 -0.36318,-0.0573 -1.64044,0.0084 -0.78098,0.04014 -1.42907,0.06388 -1.44019,0.05276 -0.0572,-0.05723 -0.11119,-0.582268 -0.0734,-0.714462 0.0402,-0.140753 0.0464,-0.144026 0.29507,-0.155162 0.13969,-0.0063 0.79995,0.01484 1.46724,0.04687 1.01957,0.04895 1.2396,0.04907 1.37825,7.94e-4 0.23363,-0.08144 0.25895,-0.07524 0.3723,0.09119 0.10086,0.148116 0.10256,0.148706 0.42788,0.148997 l 0.32662,2.65e-4 0.0445,-0.138353 c 0.0245,-0.0761 0.22701,-0.891998 0.45013,-1.813119 0.22313,-0.92112 0.43685,-1.740445 0.47494,-1.820722 0.13104,-0.276145 0.22437,-0.308483 0.91308,-0.316373 0.3379,-0.0039 0.64859,0.0069 0.69044,0.02384 0.11278,0.04577 0.20063,0.246859 0.20063,0.459253 v 0.187508 l 0.30525,0.02558 c 0.19259,0.01614 0.33006,0.0504 0.37249,0.09282 0.0599,0.05987 0.0686,0.424722 0.08,3.332998 0.009,2.201876 -0.002,3.316179 -0.0322,3.420507 -0.0299,0.102984 -0.0769,0.163301 -0.14046,0.180343 -0.10663,0.02858 -1.14723,0.02572 -1.30045,-0.0036 z"
         id="path308" />
      <text
         xml:space="preserve"
         style="font-style:normal;font-variant:normal;font-weight:bold;font-stretch:normal;font-size:4.68046px;line-height:1.25;font-family:Lato;-inkscape-font-specification:'Lato, Bold';font-variant-ligatures:normal;font-variant-caps:normal;font-variant-numeric:normal;font-variant-east-asian:normal;stroke-width:0.212748"
         x="135.5253"
         y="38.098171"
         id="text941"><tspan
           sodipodi:role="line"
           id="tspan939"
           style="font-style:normal;font-variant:normal;font-weight:bold;font-stretch:normal;font-size:4.68046px;font-family:Poppins;-inkscape-font-specification:'Poppins, Bold';font-variant-ligatures:normal;font-variant-caps:normal;font-variant-numeric:normal;font-variant-east-asian:normal;stroke-width:0.212748"
           x="135.5253"
           y="38.098171">HAMILTON</tspan></text>
      <text
         xml:space="preserve"
         style="font-size:3.89624px;line-height:1.25;font-family:'Playfair Display';-inkscape-font-specification:'Playfair Display, @wght=700';font-variation-settings:'wght' 700;stroke-width:0.177102"
         x="135.24583"
         y="41.524742"
         id="text2363"><tspan
           sodipodi:role="line"
           id="tspan2361"
           style="font-style:normal;font-variant:normal;font-weight:normal;font-stretch:normal;font-size:3.89624px;font-family:Lato;-inkscape-font-specification:'Lato, Normal';font-variant-ligatures:normal;font-variant-caps:normal;font-variant-numeric:normal;font-variant-east-asian:normal;stroke-width:0.177102"
           x="135.24583"
           y="41.524742">DECORATING</tspan></text>
      <text
         xml:space="preserve"
         style="font-size:5.82083px;line-height:1.25;font-family:'Playfair Display';-inkscape-font-specification:'Playfair Display, @wght=700';font-variation-settings:'wght' 700;stroke-width:0.264583"
         x="160.56125"
         y="41.516453"
         id="text14205"><tspan
           sodipodi:role="line"
           id="tspan14203"
           style="font-style:normal;font-variant:normal;font-weight:normal;font-stretch:normal;font-size:1.85208px;font-family:Lato;-inkscape-font-specification:'Lato, Normal';font-variant-ligatures:normal;font-variant-caps:normal;font-variant-numeric:normal;font-variant-east-asian:normal;stroke-width:0.264583"
           x="160.56125"
           y="41.516453">LTD</tspan></text>
    </g>
  </g>
</svg>
