<svg xmlns="http://www.w3.org/2000/svg" viewBox="0 0 98.95 33.63"><defs><style>.cls-1{fill:#0c121f;}.cls-2,.cls-4{fill:#fff;}.cls-3{fill:#a8943d;}.cls-4{font-size:6px;font-family:Raleway-Thin, Raleway;font-weight:200;letter-spacing:0.32em;}.cls-5{letter-spacing:0.31em;}.cls-6{letter-spacing:0.31em;}.cls-7{letter-spacing:0.32em;}.cls-8{letter-spacing:0.31em;}.cls-9{letter-spacing:0.25em;}</style></defs><g id="Layer_2" data-name="Layer 2"><g id="Layer_1-2" data-name="Layer 1"><rect class="cls-1" width="98.95" height="32.75"/><path class="cls-2" d="M9.71,16.17v-.28a3.21,3.21,0,0,0,.72-.11.49.49,0,0,0,.33-.34,2.41,2.41,0,0,0,.09-.76V7.74A2.37,2.37,0,0,0,10.76,7a.49.49,0,0,0-.33-.34,2.42,2.42,0,0,0-.72-.1V6.26l.77,0,1,0,1,0,.8,0v.28a2.42,2.42,0,0,0-.72.1.53.53,0,0,0-.33.34,2.77,2.77,0,0,0-.08.76v6.94a2.82,2.82,0,0,0,.08.76.53.53,0,0,0,.33.34,3.21,3.21,0,0,0,.72.11v.28l-.8,0h-2Zm1.95-4.85V11h5.53v.28Zm3.9,4.85v-.28a3.43,3.43,0,0,0,.73-.11.5.5,0,0,0,.32-.34,2.41,2.41,0,0,0,.09-.76V7.74A2.37,2.37,0,0,0,16.61,7a.5.5,0,0,0-.32-.34,2.55,2.55,0,0,0-.73-.1V6.26l.82,0,1,0,1,0,.77,0v.28a2.53,2.53,0,0,0-.72.1.53.53,0,0,0-.33.34,2.77,2.77,0,0,0-.08.76v6.94a2.82,2.82,0,0,0,.08.76.53.53,0,0,0,.33.34,3.42,3.42,0,0,0,.72.11v.28c-.19,0-.45,0-.77,0h-2Z"/><path class="cls-2" d="M25.41,6.19,28.82,15a1.46,1.46,0,0,0,.48.71,1,1,0,0,0,.49.19v.28l-.69,0H27.27c-.32,0-.58,0-.77,0v-.28a1.35,1.35,0,0,0,.91-.25q.19-.21-.09-.93l-2.6-7,.22-.18L22.51,13.9a3.14,3.14,0,0,0-.28,1.18.66.66,0,0,0,.32.61,1.87,1.87,0,0,0,.9.2v.28l-.82,0H21.24l-.45,0v-.28a1.55,1.55,0,0,0,.57-.33,2.19,2.19,0,0,0,.53-.89l3.29-8.48h.23Zm1.7,6v.28H22.94l.14-.28Z"/><path class="cls-2" d="M42.19,6.26v.28a2.42,2.42,0,0,0-.72.1.53.53,0,0,0-.33.34,2.77,2.77,0,0,0-.08.76v6.94a2.82,2.82,0,0,0,.08.76.53.53,0,0,0,.33.34,3.21,3.21,0,0,0,.72.11v.28l-.8,0h-2l-.77,0v-.28a3.21,3.21,0,0,0,.72-.11.49.49,0,0,0,.33-.34,2.41,2.41,0,0,0,.09-.76V7l.05,0-3.43,9.21h-.22L32.63,7.15v7.39a2.84,2.84,0,0,0,.09.8.62.62,0,0,0,.36.4,2.55,2.55,0,0,0,.82.15v.28c-.16,0-.38,0-.65,0H31.77l-.6,0v-.28a2.06,2.06,0,0,0,.73-.15.59.59,0,0,0,.32-.4,2.84,2.84,0,0,0,.09-.8V7.74A2.37,2.37,0,0,0,32.22,7a.5.5,0,0,0-.32-.34,2.55,2.55,0,0,0-.73-.1V6.26l.6,0,.71,0,.63,0,.56,0,3.17,8.37-.23.11L39.76,6.3h.65l1,0Z"/><path class="cls-2" d="M48.1,6.26v.28a2.42,2.42,0,0,0-.72.1.51.51,0,0,0-.33.34,2.42,2.42,0,0,0-.08.76v6.94a2.46,2.46,0,0,0,.08.76.51.51,0,0,0,.33.34,3.21,3.21,0,0,0,.72.11v.28l-.81,0h-2l-.77,0v-.28a3.21,3.21,0,0,0,.72-.11.53.53,0,0,0,.33-.34,2.46,2.46,0,0,0,.08-.76V7.74A2.42,2.42,0,0,0,45.58,7a.53.53,0,0,0-.33-.34,2.42,2.42,0,0,0-.72-.1V6.26l.77,0,1,0,1,0Z"/><path class="cls-2" d="M54,6.26v.28a2.42,2.42,0,0,0-.72.1A.49.49,0,0,0,53,7a2.37,2.37,0,0,0-.09.76v6.94a2.41,2.41,0,0,0,.09.76.46.46,0,0,0,.33.33,2.54,2.54,0,0,0,.72.08h1a2.81,2.81,0,0,0,1.34-.26,1.4,1.4,0,0,0,.65-.82,6.79,6.79,0,0,0,.31-1.54h.32a11.39,11.39,0,0,0,0,1.15c0,.17,0,.43,0,.76s0,.67.07,1l-1.61,0H51.91l-1.47,0v-.28a3.42,3.42,0,0,0,.72-.11.53.53,0,0,0,.33-.34,2.82,2.82,0,0,0,.08-.76V7.74A2.77,2.77,0,0,0,51.49,7a.53.53,0,0,0-.33-.34,2.53,2.53,0,0,0-.72-.1V6.26l.77,0,1,0,1,0Z"/><path class="cls-2" d="M66.55,6.26c0,.35-.06.69-.08,1s0,.58,0,.76,0,.43,0,.63,0,.37,0,.52h-.33a8.49,8.49,0,0,0-.26-1.55,1.35,1.35,0,0,0-.59-.82A2.6,2.6,0,0,0,64,6.58h-.76v8a2.46,2.46,0,0,0,.11.84.58.58,0,0,0,.41.38,3.46,3.46,0,0,0,.9.13v.28l-.93,0H61.43c-.36,0-.66,0-.88,0v-.28a3.44,3.44,0,0,0,.89-.13.58.58,0,0,0,.41-.38,2.46,2.46,0,0,0,.11-.84v-8H61.2a2.56,2.56,0,0,0-1.29.25,1.36,1.36,0,0,0-.6.82,8.49,8.49,0,0,0-.26,1.55h-.32c0-.15,0-.33,0-.52s0-.41,0-.63,0-.43,0-.76,0-.68-.08-1l1.28,0,1.39,0h2.54l1.4,0Z"/><path class="cls-2" d="M73.31,6.06a4.42,4.42,0,0,1,2.33.6A4,4,0,0,1,77.2,8.39a6.14,6.14,0,0,1,.55,2.74,6.21,6.21,0,0,1-.57,2.74,4.37,4.37,0,0,1-1.57,1.84,4.11,4.11,0,0,1-2.31.65,4.44,4.44,0,0,1-2.33-.6A4,4,0,0,1,69.41,14a6.33,6.33,0,0,1-.55-2.73,6.12,6.12,0,0,1,.58-2.75A4.47,4.47,0,0,1,71,6.72,4.1,4.1,0,0,1,73.31,6.06Zm0,.25a2.21,2.21,0,0,0-1.58.63,4.14,4.14,0,0,0-1.05,1.74,8,8,0,0,0-.37,2.56,7.43,7.43,0,0,0,.41,2.58,4,4,0,0,0,1.12,1.7,2.43,2.43,0,0,0,1.56.59,2.25,2.25,0,0,0,1.59-.63,4.13,4.13,0,0,0,1-1.74,8,8,0,0,0,.37-2.56,7.49,7.49,0,0,0-.41-2.59,4.11,4.11,0,0,0-1.11-1.68A2.36,2.36,0,0,0,73.26,6.31Z"/><path class="cls-2" d="M88.92,6.26v.28a1.7,1.7,0,0,0-.72.14.66.66,0,0,0-.33.4,3.23,3.23,0,0,0-.08.8v8.36h-.32L81.59,7.15v7.39a2.84,2.84,0,0,0,.09.8.62.62,0,0,0,.36.4,2.5,2.5,0,0,0,.82.15v.28l-.66,0H80.73l-.6,0v-.28a2,2,0,0,0,.72-.15.61.61,0,0,0,.33-.4,2.84,2.84,0,0,0,.09-.8V7.74A2.37,2.37,0,0,0,81.18,7a.51.51,0,0,0-.33-.34,2.42,2.42,0,0,0-.72-.1V6.26l.6,0,.7,0,.59,0,.5,0,5,7.61v-6a2.75,2.75,0,0,0-.09-.8.69.69,0,0,0-.37-.4,2.05,2.05,0,0,0-.82-.14V6.26l.67,0,.76,0,.72,0Z"/><rect class="cls-3" y="31.73" width="98.95" height="1.9"/><text class="cls-4" transform="translate(21.54 24.88)">D<tspan class="cls-5" x="6.19" y="0">E</tspan><tspan class="cls-6" x="11.73" y="0">C</tspan><tspan class="cls-7" x="17.8" y="0">O</tspan><tspan class="cls-8" x="24.26" y="0">R</tspan><tspan class="cls-9" x="29.98" y="0">A</tspan><tspan x="35.53" y="0">TING</tspan></text><polygon class="cls-3" points="15.2 24.48 14.33 24.04 13.48 24.5 13.63 23.54 12.92 22.88 13.88 22.72 14.3 21.84 14.74 22.71 15.71 22.83 15.02 23.52 15.2 24.48"/><polygon class="cls-3" points="85.51 24.59 84.64 24.15 83.79 24.61 83.94 23.65 83.23 22.98 84.19 22.83 84.61 21.95 85.05 22.82 86.02 22.94 85.33 23.63 85.51 24.59"/></g></g></svg>